<svg version="1.1" id="Layer_1" title="YouTube Music"
	 xmlns="http://www.w3.org/2000/svg" x="0px" y="0px" viewBox="0 0 176 176"
	 enable-background="new 0 0 176 176" xml:space="preserve">
<defs>
	<mask id="cutout">
		<rect width="100%" height="100%" fill="white"/>
		<path transform="translate(13.2 13.2) scale(0.85)" fill="black" d="M88,46c23.1,0,42,18.8,42,42s-18.8,42-42,42s-42-18.8-42-42S64.9,46,88,46 M88,42
			c-25.4,0-46,20.6-46,46s20.6,46,46,46s46-20.6,46-46S113.4,42,88,42L88,42z"/>
		<polygon transform="translate(13.2 13.2) scale(0.85)" fill="black" points="72,111 111,87 72,65 	"/>
	</mask>
</defs>
<g id="XMLID_167_">
	<circle transform="translate(13.2 13.2) scale(0.85)" id="XMLID_791_" cx="88" cy="88" r="88" mask="url(#cutout)"/>
</g>
</svg>
